<svg xmlns="http://www.w3.org/2000/svg" fill="none" viewBox="0 0 24 24" id="Delete-History--Streamline-Outlined-Material" height="24" width="24">
  <desc>
    Delete History Streamline Icon: https://streamlinehq.com
  </desc>
  <path fill="#ffffff" d="m16.75 21 -1.05 -1.05 2.1 -2.1 -2.1 -2.1 1.05 -1.05 2.1 2.1 2.1 -2.1 1.05 1.05 -2.075 2.1L22 19.95 20.95 21l-2.1 -2.075L16.75 21Zm-4.825 0c-2.48335 0 -4.59165 -0.87915 -6.325 -2.6375C3.866665 16.60415 3 14.475 3 11.975h1.5c0 2.08335 0.71665 3.85835 2.15 5.325S9.84165 19.5 11.925 19.5c0.4 0 0.7875 -0.02915 1.1625 -0.0875 0.375 -0.05835 0.74585 -0.14585 1.1125 -0.2625v1.55c-0.36665 0.1 -0.74165 0.175 -1.125 0.225 -0.38335 0.05 -0.76665 0.075 -1.15 0.075ZM3.55 8.825V3.625h1.5v2.65c0.86665 -1.01665 1.89585 -1.816665 3.0875 -2.4C9.32915 3.291665 10.59165 3 11.925 3c2.51665 0 4.65835 0.866665 6.425 2.6 1.76665 1.73335 2.65 3.85 2.65 6.35v0.25h-1.5v-0.325c0 -2.06665 -0.74165 -3.8125 -2.225 -5.2375C15.79165 5.2125 14.00835 4.5 11.925 4.5c-1.13335 0 -2.19585 0.258335 -3.1875 0.775 -0.99165 0.51665 -1.85415 1.2 -2.5875 2.05h2.625v1.5H3.55ZM14 14.95l-2.725 -2.675v-5.35h1.5v4.725l2.025 1.975L14 14.95Z" stroke-width="0.5"></path>
</svg>