<?xml version="1.0" encoding="utf-8"?>
<!-- Generator: Adobe Illustrator 17.0.0, SVG Export Plug-In . SVG Version: 6.00 Build 0)  -->
<!DOCTYPE svg PUBLIC "-//W3C//DTD SVG 1.1//EN" "http://www.w3.org/Graphics/SVG/1.1/DTD/svg11.dtd">
<svg version="1.1" id="Layer_1" xmlns="http://www.w3.org/2000/svg" xmlns:xlink="http://www.w3.org/1999/xlink" x="0px" y="0px"
	 width="1200px" height="1200px" viewBox="0 0 1200 1200" enable-background="new 0 0 1200 1200" xml:space="preserve">
<path fill="#282727" d="M824.504,50H375.496c-83.314,0-150.877,57.126-150.877,127.567v844.87
	c0,70.442,67.563,127.562,150.877,127.562h449.008c83.315,0,150.877-57.12,150.877-127.562v-844.87
	C975.381,107.126,907.819,50,824.504,50z M424.009,937.97c0,16.279-17.385,29.505-38.782,29.505H345.56
	c-21.43,0-38.805-13.226-38.805-29.505v-31.612c0-16.295,17.375-29.516,38.805-29.516h39.667c21.397,0,38.782,13.221,38.782,29.516
	V937.97z M424.009,812.323c0,16.296-17.385,29.511-38.782,29.511H345.56c-21.43,0-38.805-13.214-38.805-29.511v-31.6
	c0-16.296,17.375-29.512,38.805-29.512h39.667c21.397,0,38.782,13.216,38.782,29.512V812.323z M424.009,686.672
	c0,16.311-17.385,29.527-38.782,29.527H345.56c-21.43,0-38.805-13.216-38.805-29.527v-31.585c0-16.295,17.375-29.511,38.805-29.511
	h39.667c21.397,0,38.782,13.216,38.782,29.511V686.672z M424.009,561.041c0,16.311-17.385,29.527-38.782,29.527H345.56
	c-21.43,0-38.805-13.216-38.805-29.527V529.45c0-16.29,17.375-29.505,38.805-29.505h39.667c21.397,0,38.782,13.216,38.782,29.505
	V561.041z M580.762,937.97c0,16.279-17.396,29.505-38.825,29.505H502.28c-21.429,0-38.782-13.226-38.782-29.505v-31.612
	c0-16.295,17.353-29.516,38.782-29.516h39.657c21.429,0,38.825,13.221,38.825,29.516V937.97z M580.762,812.323
	c0,16.296-17.396,29.511-38.825,29.511H502.28c-21.429,0-38.782-13.214-38.782-29.511v-31.6c0-16.296,17.353-29.512,38.782-29.512
	h39.657c21.429,0,38.825,13.216,38.825,29.512V812.323z M580.762,686.672c0,16.311-17.396,29.527-38.825,29.527H502.28
	c-21.429,0-38.782-13.216-38.782-29.527v-31.585c0-16.295,17.353-29.511,38.782-29.511h39.657c21.429,0,38.825,13.216,38.825,29.511
	V686.672z M580.762,561.041c0,16.311-17.396,29.527-38.825,29.527H502.28c-21.429,0-38.782-13.216-38.782-29.527V529.45
	c0-16.29,17.353-29.505,38.782-29.505h39.657c21.429,0,38.825,13.216,38.825,29.505V561.041z M737.44,937.97
	c0,16.279-17.333,29.505-38.761,29.505h-39.647c-21.439,0-38.803-13.226-38.803-29.505v-31.612
	c0-16.295,17.365-29.516,38.803-29.516h39.647c21.429,0,38.761,13.221,38.761,29.516V937.97z M737.44,812.323
	c0,16.296-17.333,29.511-38.761,29.511h-39.647c-21.439,0-38.803-13.214-38.803-29.511v-31.6c0-16.296,17.365-29.512,38.803-29.512
	h39.647c21.429,0,38.761,13.216,38.761,29.512V812.323z M737.44,686.672c0,16.311-17.333,29.527-38.761,29.527h-39.647
	c-21.439,0-38.803-13.216-38.803-29.527v-31.585c0-16.295,17.365-29.511,38.803-29.511h39.647c21.429,0,38.761,13.216,38.761,29.511
	V686.672z M737.44,561.041c0,16.311-17.333,29.527-38.761,29.527h-39.647c-21.439,0-38.803-13.216-38.803-29.527V529.45
	c0-16.29,17.365-29.505,38.803-29.505h39.647c21.429,0,38.761,13.216,38.761,29.505V561.041z M894.204,812.323
	c0,0.995-0.274,1.948-0.389,2.933c0.115,2.311,0.389,4.575,0.389,6.966v74.38c0,2.354-0.274,4.565-0.389,6.845
	c0.115,0.974,0.389,1.922,0.389,2.911v31.612c0,16.279-17.364,29.505-38.803,29.505h-39.678c-21.387,0-38.772-13.226-38.772-29.505
	v-31.612c0-0.99,0.252-1.938,0.389-2.911c-0.137-2.279-0.389-4.491-0.389-6.845v-74.38c0-2.391,0.252-4.655,0.389-6.966
	c-0.137-0.984-0.389-1.938-0.389-2.933v-31.6c0-16.296,17.385-29.512,38.772-29.512H855.4c21.44,0,38.803,13.216,38.803,29.512
	V812.323z M894.204,686.672c0,16.311-17.364,29.527-38.803,29.527h-39.678c-21.387,0-38.772-13.216-38.772-29.527v-31.585
	c0-16.295,17.385-29.511,38.772-29.511H855.4c21.44,0,38.803,13.216,38.803,29.511V686.672z M894.204,561.041
	c0,16.311-17.364,29.527-38.803,29.527h-39.678c-21.387,0-38.772-13.216-38.772-29.527V529.45c0-16.29,17.385-29.505,38.772-29.505
	H855.4c21.44,0,38.803,13.216,38.803,29.505V561.041z M898.479,343.919H301.522v-79.825c0-56.031,0.484-101.443,119.949-101.443
	H778.53c103.238,0,119.949,45.411,119.949,101.443V343.919z"/>
</svg>
